<svg width="236" height="44" viewBox="0 0 236 44" fill="none" xmlns="http://www.w3.org/2000/svg">
<path d="M1.74742 17.17C1.71736 14.7729 2.19954 12.397 3.1617 10.2013C4.05845 8.17841 5.39128 6.37881 7.06481 4.93127C8.76815 3.49727 10.7205 2.38851 12.8247 1.66025C15.0812 0.869064 17.4575 0.473469 19.8487 0.490894C22.7061 0.469031 25.5455 0.944935 28.2396 1.89728C30.6644 2.73952 32.8832 4.08592 34.75 5.84779L33.3515 6.87492C31.6448 5.32688 29.6311 4.1558 27.4416 3.43798C24.9952 2.61634 22.4292 2.2078 19.8487 2.22912C17.7017 2.21635 15.5669 2.55257 13.5279 3.22465C11.625 3.84105 9.85196 4.80257 8.29737 6.06112C6.76662 7.34253 5.55937 8.96663 4.77351 10.8017C3.89201 12.8185 3.45287 15.0008 3.48564 17.2016V27.6546C3.4724 29.3778 3.76396 31.0897 4.34686 32.7113C4.88251 34.2045 5.70067 35.5806 6.75667 36.7645C7.80973 37.922 9.039 38.906 10.399 39.68C11.8437 40.4949 13.3975 41.0989 15.0132 41.4735C16.7551 41.8695 18.5364 42.0656 20.3227 42.0582C22.32 42.0698 24.3066 41.7659 26.209 41.1575C27.9541 40.612 29.5886 39.7613 31.0365 38.645C32.3913 37.5778 33.499 36.2301 34.2838 34.6944C35.0874 33.1054 35.4991 31.3472 35.4848 29.5667C35.4925 27.8474 35.1213 26.1476 34.3976 24.5881C33.6738 23.0286 32.6153 21.6477 31.2973 20.5437C28.676 18.4237 25.4085 17.2639 22.0373 17.2569C19.7144 17.2387 17.4047 17.6072 15.2029 18.3472V16.5458C17.4554 15.9137 19.7847 15.5972 22.1242 15.6056C24.069 15.5968 26.0001 15.9311 27.8287 16.5932C29.5847 17.2207 31.2143 18.1572 32.6404 19.3585C34.058 20.5725 35.1956 22.0793 35.9747 23.7752C36.8192 25.5742 37.2486 27.5399 37.2309 29.5272C37.2453 31.5441 36.7852 33.5361 35.8878 35.3423C35.0254 37.0968 33.7904 38.6418 32.2691 39.8696C30.6532 41.146 28.8233 42.1252 26.8648 42.7614C24.7491 43.4585 22.5344 43.808 20.3069 43.7964C17.8554 43.8151 15.4161 43.4499 13.0775 42.714C10.9392 42.0428 8.93972 40.9909 7.17542 39.6089C5.47939 38.2317 4.12692 36.4789 3.22491 34.489C2.23229 32.3484 1.72764 30.0141 1.74742 27.6546V17.17ZM5.21597 17.17C5.18898 15.2207 5.58243 13.2885 6.36952 11.5049C7.08604 9.8908 8.16799 8.46533 9.52993 7.34108C10.9136 6.23107 12.4879 5.38235 14.1757 4.83646C16.0071 4.23943 17.9225 3.94065 19.8487 3.95154C22.1846 3.93167 24.5085 4.28919 26.7305 5.01028C28.6936 5.62546 30.5072 6.64257 32.0558 7.99687L30.7047 9.08721C29.309 7.93839 27.697 7.08133 25.9641 6.56678C23.9817 5.96677 21.9198 5.67107 19.8487 5.68977C18.1477 5.68757 16.4571 5.95422 14.8394 6.47987C13.3505 6.94946 11.9606 7.68863 10.7388 8.66056C9.5415 9.63268 8.58893 10.8721 7.95762 12.2792C7.2685 13.8276 6.92346 15.507 6.94629 17.2016V27.6546C6.91374 29.3315 7.27359 30.9928 7.99713 32.5059C8.65294 33.8809 9.64479 35.0684 10.881 35.9586C12.167 36.8566 13.6003 37.5225 15.116 37.926C16.8147 38.3908 18.5695 38.6194 20.3306 38.6055C23.3067 38.7103 26.2359 37.8421 28.6741 36.1324C29.7359 35.4 30.5987 34.415 31.1849 33.266C31.7711 32.1171 32.0622 30.8404 32.0321 29.5509C32.0697 27.821 31.567 26.1225 30.5941 24.6917C29.6856 23.3465 28.4144 22.2863 26.928 21.634C25.369 20.9634 23.6868 20.627 21.9899 20.6464C19.6802 20.6398 17.3858 21.0218 15.2029 21.7763V20.0143C17.4164 19.3276 19.7197 18.9734 22.0373 18.9635C24.0776 18.943 26.0941 19.4031 27.9235 20.3067C29.6593 21.1597 31.1311 22.4677 32.1822 24.0913C33.2336 25.7077 33.7834 27.599 33.7624 29.5272C33.7869 31.5724 33.1495 33.5707 31.9451 35.2238C30.7033 36.9072 29.0223 38.2165 27.086 39.0084C24.9455 39.8936 22.6467 40.3318 20.3306 40.2963C18.3483 40.3218 16.373 40.0555 14.4681 39.5062C12.7463 39.0006 11.126 38.1985 9.68005 37.1359C8.28616 36.1031 7.1637 34.7474 6.40902 33.1853C5.59168 31.4579 5.18343 29.5654 5.21597 27.6546V17.17ZM8.68452 17.17C8.62944 15.2551 9.16156 13.3693 10.2094 11.7657C11.1945 10.2969 12.5906 9.15093 14.2231 8.47093C16.0098 7.75081 17.9226 7.39618 19.8487 7.428C23.9256 7.428 27.086 8.34188 29.3299 10.1697L27.963 11.2284C26.051 9.84834 23.3462 9.15832 19.8487 9.15832C17.4209 9.06014 15.0323 9.79317 13.0775 11.2363C12.1937 11.9423 11.4911 12.8489 11.0281 13.8809C10.565 14.9129 10.3547 16.0404 10.4148 17.17V27.6546C10.395 28.8728 10.6659 30.0781 11.2049 31.1706C11.6838 32.1498 12.4321 32.9721 13.3619 33.5409C14.3392 34.1304 15.407 34.5548 16.5223 34.7972C17.7942 35.0718 19.0927 35.2043 20.3938 35.1922C22.4583 35.2728 24.503 34.763 26.288 33.7226C27.0192 33.3159 27.626 32.7179 28.0436 31.9928C28.4611 31.2677 28.6736 30.4428 28.6583 29.6062C28.6995 28.8076 28.5429 28.0111 28.2024 27.2876C27.862 26.564 27.3483 25.9356 26.7068 25.4581C25.3318 24.4599 23.6645 23.9458 21.9661 23.9965C19.6809 23.9818 17.4151 24.4167 15.2977 25.2764V23.3802C17.4556 22.6614 19.7154 22.2958 21.9899 22.2977C24.1397 22.2346 26.245 22.9187 27.9472 24.2335C28.745 24.8624 29.3823 25.6715 29.8067 26.5945C30.2311 27.5175 30.4305 28.528 30.3886 29.543C30.4152 30.6042 30.1682 31.6544 29.6714 32.5926C29.1747 33.5308 28.4449 34.3253 27.5522 34.8999C25.4398 36.2687 22.9567 36.953 20.4412 36.8593C18.8796 36.8882 17.3208 36.7155 15.8033 36.3458C14.4942 36.0113 13.2499 35.4612 12.1215 34.7181C11.0417 33.9937 10.1701 32.9995 9.59314 31.8343C8.96843 30.5313 8.65984 29.0993 8.69242 27.6546L8.68452 17.17ZM12.1452 17.17C12.0799 16.2625 12.2431 15.3531 12.6199 14.525C12.9967 13.6968 13.5751 12.9763 14.3022 12.4293C15.9284 11.3228 17.8675 10.7687 19.8329 10.8491C22.8037 10.8491 25.066 11.3311 26.6199 12.295L25.2372 13.4328C24.1837 12.906 22.3875 12.6427 19.8487 12.6427C18.3325 12.5706 16.8281 12.9412 15.5189 13.7093C14.9656 14.0947 14.5233 14.6187 14.2362 15.2288C13.9492 15.8389 13.8275 16.5138 13.8834 17.1858V27.6546C13.8639 28.2786 13.9826 28.8991 14.231 29.4719C14.427 29.9342 14.7304 30.3432 15.116 30.6649C15.5572 30.9779 16.0614 31.1909 16.5934 31.2891C17.164 31.435 17.7452 31.5354 18.3317 31.5893C18.8847 31.6367 19.5563 31.6604 20.3622 31.6604C23.5226 31.6604 25.1029 30.9546 25.1029 29.543C25.1282 29.1856 25.051 28.8284 24.8802 28.5135C24.7094 28.1986 24.4523 27.939 24.1389 27.7652C23.3778 27.3661 22.5246 27.1753 21.6659 27.2122C19.443 27.1945 17.2421 27.6525 15.2108 28.5553V26.8645C17.2691 26.0353 19.4706 25.6192 21.6896 25.6399C22.9829 25.5924 24.262 25.9218 25.3715 26.588C25.8579 26.9061 26.2519 27.3467 26.5141 27.8654C26.7762 28.3841 26.8972 28.9627 26.8648 29.543C26.8787 30.1501 26.7139 30.7478 26.3908 31.262C26.0677 31.7761 25.6006 32.184 25.0475 32.4347C23.5865 33.1297 21.9789 33.4604 20.3622 33.3987C19.5011 33.4027 18.6407 33.3499 17.7865 33.2407C17.0261 33.1368 16.2791 32.9514 15.5584 32.6876C14.9026 32.4546 14.2948 32.1038 13.7649 31.6525C13.2543 31.2044 12.8495 30.6485 12.5797 30.0249C12.2805 29.2711 12.1328 28.4656 12.1452 27.6546V17.17Z" fill="#111111"/>
<path d="M68.3214 42.0819H46.1116V2.22908H68.3214C71.4433 2.2241 74.4952 3.15425 77.0836 4.89963C79.8356 6.72377 82.0699 9.22756 83.5703 12.1686C85.1808 15.2384 86.0111 18.6573 85.9881 22.1239C85.998 24.7806 85.5075 27.4154 84.5422 29.8906C83.6649 32.2263 82.372 34.3838 80.726 36.2588C79.1466 38.0365 77.2288 39.4815 75.0846 40.5096C72.9754 41.5473 70.6563 42.0879 68.3056 42.0898M47.8419 40.3515H68.3214C70.4365 40.3482 72.522 39.8533 74.4131 38.9057C76.3453 37.9628 78.0719 36.6471 79.4934 35.0342C80.9892 33.3255 82.1642 31.3609 82.962 29.2348C84.6794 24.6851 84.6794 19.6654 82.962 15.1157C82.1742 12.991 81.0129 11.0243 79.5329 9.30841C78.1142 7.68841 76.3872 6.36697 74.4526 5.4211C72.5516 4.45931 70.4518 3.95602 68.3214 3.95151H47.8419V40.3515ZM49.5722 38.6212V5.68973H68.3214C70.8288 5.69232 73.2751 6.46452 75.3296 7.90202C77.5416 9.42611 79.3238 11.4941 80.5047 13.9068C81.7873 16.4551 82.448 19.271 82.4326 22.1239C82.4542 24.99 81.7934 27.8202 80.5047 30.3804C79.3238 32.7932 77.5416 34.8611 75.3296 36.3852C73.2741 37.8199 70.828 38.5894 68.3214 38.5896L49.5722 38.6212ZM51.3105 36.883H68.3214C70.5218 36.8848 72.667 36.1937 74.4526 34.9077C76.3896 33.5338 77.9427 31.6869 78.9641 29.5429C80.0993 27.2362 80.6758 24.6947 80.647 22.1239C80.6672 19.5666 80.091 17.0399 78.9641 14.7443C77.9402 12.5929 76.3814 10.7403 74.4368 9.36371C72.6491 8.09831 70.5115 7.42166 68.3214 7.42796H51.3105V36.883ZM53.0408 35.1527V9.15829H68.3214C70.2099 9.161 72.0481 9.76728 73.5676 10.8886C75.246 12.1058 76.5778 13.7398 77.4312 15.6292C78.3928 17.6585 78.8843 19.8784 78.8692 22.1239C78.8924 24.3879 78.4007 26.6277 77.4312 28.6738C76.5756 30.5619 75.2443 32.1954 73.5676 33.4144C72.0481 34.5358 70.2099 35.1421 68.3214 35.1448L53.0408 35.1527ZM54.7711 33.4223H68.3214C70.718 33.4223 72.7775 32.3188 74.5 30.1118C76.2535 27.8251 77.1658 25.0043 77.0836 22.1239C77.1038 20.1737 76.6966 18.2427 75.8906 16.4667C75.2009 14.8546 74.1135 13.4437 72.7301 12.3661C71.4824 11.3905 69.9447 10.8594 68.3609 10.857H54.7711V33.4223ZM56.5093 31.6841V12.6426H68.3609C70.2729 12.6426 71.9137 13.575 73.2832 15.4396C74.6615 17.3908 75.3711 19.7358 75.3059 22.1239C75.3717 24.5352 74.6476 26.9019 73.2437 28.8634C71.9005 30.7597 70.2334 31.6841 68.3214 31.6841H56.5093ZM58.2396 29.9538H68.3214C69.7541 29.9538 70.9787 29.1927 71.9953 27.6704C73.0495 26.0227 73.5811 24.0948 73.5202 22.1397C73.5831 20.1843 73.0514 18.2558 71.9953 16.609C70.9735 15.092 69.7488 14.3335 68.3214 14.3335H58.2396V29.9538Z" fill="#111111"/>
<path d="M90.3969 32.1582C89.3958 29.8184 88.8796 27.2999 88.8796 24.7549C88.8796 22.2099 89.3958 19.6914 90.3969 17.3516C92.3086 12.7646 95.9548 9.11838 100.542 7.20671C102.88 6.20582 105.397 5.68976 107.941 5.68976C110.485 5.68976 113.002 6.20582 115.34 7.20671C117.617 8.15368 119.684 9.5398 121.425 11.2859C123.166 13.032 124.545 15.1039 125.485 17.3832C126.486 19.723 127.003 22.2415 127.003 24.7865C127.003 27.3315 126.486 29.85 125.485 32.1898C123.577 36.7663 119.936 40.4019 115.356 42.3031C113.018 43.304 110.501 43.82 107.957 43.82C105.413 43.82 102.896 43.304 100.558 42.3031C95.9646 40.3948 92.3123 36.7482 90.3969 32.1582ZM91.9771 18.0232C91.073 20.1468 90.607 22.4311 90.607 24.7391C90.607 27.0471 91.073 29.3314 91.9771 31.455C92.8318 33.5302 94.0876 35.4163 95.6725 37.0053C97.2575 38.5943 99.1404 39.855 101.213 40.715C103.338 41.6137 105.622 42.0768 107.929 42.0768C110.236 42.0768 112.52 41.6137 114.645 40.715C116.717 39.8602 118.598 38.604 120.182 37.0189C121.766 35.4337 123.021 33.5508 123.874 31.4787C124.778 29.3551 125.244 27.0708 125.244 24.7628C125.244 22.4548 124.778 20.1705 123.874 18.0469C123.014 15.9817 121.76 14.1033 120.184 12.5162C118.594 10.9404 116.717 9.68506 114.653 8.81852C112.528 7.91975 110.244 7.45664 107.937 7.45664C105.63 7.45664 103.346 7.91975 101.221 8.81852C97.0445 10.5513 93.7256 13.8701 91.9929 18.0469M93.5731 30.8466C92.7546 28.9283 92.3327 26.8642 92.3327 24.7786C92.3327 22.693 92.7546 20.6289 93.5731 18.7106C94.3415 16.8518 95.4691 15.1629 96.8914 13.7407C98.3136 12.3184 100.003 11.1908 101.861 10.4224C103.778 9.60372 105.841 9.18164 107.925 9.18164C110.01 9.18164 112.073 9.60372 113.989 10.4224C115.846 11.1954 117.534 12.3226 118.959 13.7409C120.376 15.1694 121.505 16.8565 122.285 18.7106C123.104 20.6289 123.526 22.693 123.526 24.7786C123.526 26.8642 123.104 28.9283 122.285 30.8466C120.727 34.5993 117.744 37.5802 113.989 39.1348C112.073 39.9535 110.01 40.3756 107.925 40.3756C105.841 40.3756 103.778 39.9535 101.861 39.1348C100.009 38.3548 98.322 37.2285 96.8915 35.8163C95.4766 34.3881 94.35 32.7008 93.5731 30.8466ZM95.1533 19.398C94.4288 21.0993 94.0553 22.9294 94.0553 24.7786C94.0553 26.6278 94.4288 28.4579 95.1533 30.1592C96.539 33.5037 99.1963 36.161 102.541 37.5467C104.242 38.2712 106.072 38.6447 107.921 38.6447C109.771 38.6447 111.601 38.2712 113.302 37.5467C114.956 36.8563 116.458 35.8499 117.727 34.5838C118.988 33.3115 119.993 31.8096 120.689 30.1592C121.409 28.4566 121.78 26.627 121.78 24.7786C121.78 22.9302 121.409 21.1005 120.689 19.398C119.993 17.7475 118.988 16.2457 117.727 14.9734C116.458 13.7073 114.956 12.7009 113.302 12.0105C111.601 11.286 109.771 10.9125 107.921 10.9125C106.072 10.9125 104.242 11.286 102.541 12.0105C99.1963 13.3962 96.539 16.0535 95.1533 19.398ZM97.4367 30.815C95.8229 28.0289 95.3816 24.7159 96.2099 21.6045C97.0381 18.4931 99.068 15.8379 101.853 14.2228C103.707 13.1611 105.805 12.6025 107.941 12.6025C110.077 12.6025 112.176 13.1611 114.029 14.2228C115.871 15.2898 117.4 16.8223 118.463 18.6666C119.526 20.511 120.086 22.6024 120.086 24.7312C120.086 26.86 119.526 28.9514 118.463 30.7957C117.4 32.6401 115.871 34.1726 114.029 35.2396C112.176 36.3013 110.077 36.8598 107.941 36.8598C105.805 36.8598 103.707 36.3013 101.853 35.2396C100.017 34.1799 98.4931 32.6534 97.4367 30.815ZM100.597 17.3832C99.6163 18.3346 98.8405 19.4765 98.3174 20.7388C97.7943 22.0011 97.5349 23.3571 97.5552 24.7233C97.5354 26.0895 97.795 27.4453 98.3181 28.7075C98.8412 29.9697 99.6167 31.1117 100.597 32.0633C101.561 33.0325 102.706 33.8016 103.968 34.3265C105.229 34.8513 106.583 35.1215 107.949 35.1215C109.316 35.1215 110.669 34.8513 111.93 34.3265C113.192 33.8016 114.338 33.0325 115.301 32.0633C116.282 31.1121 117.059 29.9704 117.584 28.7082C118.108 27.446 118.369 26.09 118.351 24.7233C118.369 23.356 118.106 21.9995 117.581 20.7372C117.055 19.4749 116.276 18.3335 115.293 17.3832C114.33 16.4141 113.184 15.6449 111.922 15.1201C110.661 14.5953 109.308 14.3251 107.941 14.3251C106.575 14.3251 105.222 14.5953 103.96 15.1201C102.698 15.6449 101.553 16.4141 100.589 17.3832M101.814 30.815C100.995 30.022 100.347 29.0695 99.911 28.0162C99.4748 26.963 99.2592 25.8315 99.2777 24.6917C99.4518 22.5135 100.44 20.4809 102.046 18.9987C103.651 17.5164 105.756 16.6933 107.941 16.6933C110.126 16.6933 112.231 17.5164 113.837 18.9987C115.442 20.4809 116.43 22.5135 116.605 24.6917C116.591 26.3993 116.075 28.0652 115.121 29.4813C114.166 30.8975 112.816 32.001 111.238 32.6542C109.66 33.3075 107.925 33.4814 106.249 33.1543C104.573 32.8272 103.03 32.0135 101.814 30.815ZM103.046 19.793C102.4 20.4349 101.888 21.1981 101.538 22.0388C101.188 22.8795 101.008 23.7811 101.008 24.6917C101.008 25.6023 101.188 26.5039 101.538 27.3446C101.888 28.1853 102.4 28.9485 103.046 29.5903C104.014 30.5671 105.251 31.2339 106.599 31.5058C107.947 31.7777 109.345 31.6424 110.616 31.1172C111.886 30.5919 112.972 29.7004 113.735 28.5562C114.497 27.412 114.902 26.0667 114.898 24.6917C114.902 23.3166 114.497 21.9714 113.735 20.8272C112.972 19.6829 111.886 18.7915 110.616 18.2662C109.345 17.7409 107.947 17.6057 106.599 17.8776C105.251 18.1494 104.014 18.8162 103.046 19.793Z" fill="#111111"/>
<path d="M132.612 10.4066V42.0818H130.882V7.42791H132.952L152.949 42.0818H150.958L132.612 10.4066ZM134.35 15.1472L136.081 18.3076V42.0107H134.319L134.35 15.1472ZM134.951 7.3963H136.974L157.042 42.0502H155.019L134.951 7.3963ZM137.811 21.3811L139.549 24.5415V42.0818H137.811V21.3811ZM139.059 7.42791H141.106L161.151 42.0818H159.081L139.059 7.42791ZM143.121 7.42791H145.143L163.442 39.0794V7.42791H165.133V42.0818H163.086L143.121 7.42791ZM158.243 28.097L156.505 24.9366V7.42791H158.243V28.097ZM161.704 34.0939L159.973 31.1547V7.42791H161.704V34.0939Z" fill="#111111"/>
<path d="M0.00128324 16.6801C-0.0284646 14.2814 0.459314 11.9045 1.43137 9.71136C2.32353 7.69003 3.65088 5.89056 5.31868 4.44137C7.01235 3.00198 8.96062 1.89252 11.0627 1.17035C13.3245 0.378295 15.7061 -0.0172993 18.1025 0.000996399C20.9577 -0.0248197 23.7951 0.451211 26.4855 1.40738C28.9103 2.24962 31.1292 3.59602 32.996 5.35789L31.6054 6.37712C29.897 4.83326 27.8836 3.66507 25.6954 2.94808C23.2494 2.12448 20.6834 1.71328 18.1025 1.73132C15.9551 1.71997 13.8201 2.0589 11.7817 2.73475C9.87817 3.34948 8.10482 4.31116 6.55124 5.57122C5.02041 6.8544 3.81094 8.47784 3.01948 10.3118C2.1417 12.3298 1.70272 14.5112 1.73161 16.7117V27.1252C1.71564 28.8596 2.00998 30.5828 2.60072 32.2135C3.13636 33.7091 3.95447 35.0878 5.01054 36.2746C6.07203 37.4371 7.31557 38.4191 8.69241 39.1822C10.1365 40.0041 11.694 40.6085 13.3145 40.9757C15.0554 41.3782 16.8372 41.577 18.624 41.5683C20.616 41.5783 22.5971 41.2743 24.4945 40.6676C26.2396 40.1243 27.8723 39.2705 29.3141 38.1472C30.674 37.0832 31.785 35.7349 32.5693 34.1966C33.372 32.6073 33.7837 30.8493 33.7703 29.0689C33.7766 27.3494 33.4031 25.6498 32.6764 24.0914C31.9498 22.533 30.8881 21.1543 29.5669 20.0538C28.2911 19.0009 26.8421 18.1775 25.2846 17.6203C23.6934 17.0456 22.0145 16.7516 20.3227 16.7512C17.982 16.7275 15.6537 17.0933 13.433 17.8336V16.0559C15.6881 15.423 18.0201 15.1066 20.3622 15.1157C22.311 15.1071 24.2455 15.447 26.0747 16.1191C27.8299 16.7483 29.4592 17.6847 30.8864 18.8845C32.3018 20.1004 33.439 21.6067 34.2206 23.3011C35.0597 25.1016 35.4862 27.0667 35.469 29.0531C35.4861 31.0694 35.0287 33.0614 34.1337 34.8682C33.2704 36.6198 32.0355 38.1621 30.5151 39.3876C28.9093 40.6624 27.0865 41.6367 25.1345 42.2636C23.0197 42.9644 20.8044 43.314 18.5766 43.2986C16.1222 43.3206 13.6798 42.9553 11.3393 42.2162C9.20421 41.5488 7.20928 40.4965 5.45299 39.1111C3.73797 37.7345 2.36884 35.9757 1.45507 33.9754C0.468075 31.8282 -0.0285331 29.4882 0.00128324 27.1252V16.6801ZM3.46983 16.6801C3.43858 14.7304 3.83222 12.7973 4.62338 11.015C5.33249 9.39653 6.41565 7.96947 7.7838 6.85119C9.16304 5.73889 10.7352 4.88988 12.4217 4.34656C14.2559 3.75084 16.1741 3.4547 18.1025 3.46955C20.4388 3.44576 22.7633 3.80337 24.9843 4.52829C26.944 5.14211 28.7547 6.15645 30.3017 7.50697L28.9586 8.59731C27.5668 7.44265 25.9535 6.58492 24.2179 6.07689C22.2404 5.47952 20.1841 5.18386 18.1183 5.19987C16.4174 5.19714 14.7267 5.46381 13.1091 5.98997C11.6202 6.45957 10.2302 7.19873 9.00846 8.17066C7.80707 9.1388 6.85369 10.3793 6.22729 11.7893C5.53817 13.3377 5.19312 15.0171 5.21596 16.7117V27.1252C5.18063 28.7998 5.53212 30.4599 6.2431 31.9765C6.90455 33.3502 7.89854 34.537 9.13487 35.4292C10.4177 36.3398 11.8514 37.0165 13.3698 37.4282C15.0689 37.8907 16.8237 38.1167 18.5845 38.0998C21.557 38.2046 24.4828 37.3394 26.9201 35.6346C27.9834 34.9038 28.8474 33.919 29.4338 32.7697C30.0201 31.6204 30.3103 30.3429 30.278 29.0531C30.3195 27.3239 29.8195 25.625 28.8479 24.1939C27.9363 22.8485 26.6626 21.7884 25.174 21.1362C23.6189 20.4619 21.9385 20.1253 20.2437 20.1486C17.926 20.1383 15.6233 20.5203 13.433 21.2785V19.5244C15.6465 18.8391 17.9503 18.4902 20.2674 18.4894C22.3076 18.4698 24.3239 18.9299 26.1537 19.8326C27.8876 20.6848 29.359 21.9897 30.4123 23.6093C31.4631 25.2289 32.0128 27.1225 31.9925 29.0531C32.02 31.0962 31.3821 33.0929 30.1753 34.7418C28.9309 36.4279 27.2473 37.7397 25.3083 38.5343C23.1714 39.424 20.8753 39.8677 18.5608 39.838C16.5784 39.864 14.603 39.5978 12.6982 39.0479C10.9752 38.5455 9.35438 37.7431 7.91021 36.6776C6.50901 35.6307 5.38365 34.2586 4.63129 32.6796C3.81828 30.951 3.41282 29.0589 3.44613 27.1489L3.46983 16.6801ZM6.93049 16.6801C6.87826 14.7645 7.41311 12.8787 8.46328 11.2758C9.44417 9.80628 10.838 8.65991 12.4691 7.98103C14.2576 7.25717 16.1733 6.89983 18.1025 6.9302C22.1795 6.9302 25.3399 7.84672 27.5838 9.67975L26.209 10.7385C24.3075 9.37425 21.6053 8.69213 18.1025 8.69213C15.6723 8.59403 13.2812 9.32697 11.3235 10.7701C10.4488 11.477 9.75432 12.3812 9.29695 13.4086C8.83959 14.4359 8.63241 15.5571 8.69241 16.6801V27.1252C8.67259 28.3434 8.94344 29.5487 9.48252 30.6412C9.95847 31.6199 10.7041 32.4422 11.6316 33.0115C12.609 33.599 13.6769 34.0208 14.792 34.2599C16.0656 34.5412 17.3672 34.6763 18.6714 34.6628C20.7126 34.7262 22.7304 34.2142 24.4945 33.1853C25.2251 32.7779 25.8314 32.1798 26.2489 31.4549C26.6663 30.7299 26.8792 29.9053 26.8648 29.0689C26.9038 28.2694 26.7463 27.4726 26.4061 26.7481C26.0658 26.0236 25.5533 25.3935 24.9132 24.9129C23.5346 23.9228 21.8693 23.4122 20.1726 23.4591C17.8645 23.4301 15.5737 23.8598 13.433 24.7233V22.914C15.597 22.184 17.8652 21.8105 20.1489 21.8078C22.2879 21.7534 24.3804 22.4369 26.0747 23.7436C26.8725 24.3725 27.5097 25.1816 27.9341 26.1046C28.3585 27.0276 28.558 28.0381 28.5161 29.0531C28.5418 30.1151 28.2936 31.1658 27.7954 32.104C27.2972 33.0422 26.5659 33.8364 25.6717 34.41C23.5589 35.7779 21.0761 36.462 18.5608 36.3694C17.0346 36.3828 15.5129 36.1996 14.0335 35.8243C12.7229 35.4981 11.4777 34.9503 10.3516 34.2045C9.26985 33.479 8.39791 32.4817 7.8233 31.3128C7.19079 30.0091 6.87667 28.5739 6.90678 27.1252L6.93049 16.6801ZM10.399 16.6801C10.3405 15.7791 10.507 14.8776 10.8835 14.057C11.2601 13.2363 11.8348 12.5222 12.556 11.979C14.1818 10.8713 16.1212 10.3172 18.0867 10.3987C21.0496 10.3987 23.3172 10.8807 24.8737 11.8446L23.4752 12.9034C22.4218 12.3766 20.6256 12.1133 18.0867 12.1133C16.5673 12.0439 15.0604 12.4171 13.7491 13.1878C13.1952 13.5726 12.7524 14.0965 12.4653 14.7068C12.1782 15.3171 12.0569 15.9922 12.1136 16.6643V27.1252C12.0981 27.7489 12.2167 28.3685 12.4612 28.9425C12.6631 29.4035 12.9686 29.8118 13.354 30.1355C13.7844 30.4553 14.2769 30.6813 14.7999 30.7992C15.3678 30.945 15.9464 31.0454 16.5302 31.0994C17.0833 31.1468 17.7628 31.1706 18.5687 31.1706C21.7291 31.1706 23.3093 30.4647 23.3093 29.0531C23.3337 28.6959 23.2561 28.3391 23.0854 28.0243C22.9147 27.7095 22.6581 27.4498 22.3454 27.2753C21.5821 26.8735 20.7264 26.68 19.8645 26.7144C17.6486 26.6984 15.4552 27.1592 13.433 28.0654V26.3351C15.4883 25.504 17.687 25.0852 19.904 25.1026C21.2106 25.0527 22.5027 25.3909 23.6175 26.0744C24.1041 26.3997 24.4958 26.8483 24.7525 27.3743C25.0093 27.9004 25.122 28.4851 25.0791 29.0689C25.0936 29.675 24.9289 30.272 24.6056 30.785C24.2824 31.298 23.8149 31.7042 23.2619 31.9528C21.805 32.6516 20.199 32.9825 18.5845 32.9167C17.7233 32.9249 16.8625 32.8721 16.0088 32.7587C15.2483 32.6593 14.5011 32.4765 13.7807 32.2135C13.1244 31.9777 12.5166 31.6243 11.9871 31.1706C11.4783 30.7152 11.0832 30.1469 10.8336 29.5113C10.5288 28.7591 10.3809 27.9525 10.399 27.141V16.6801Z" fill="white"/>
<path d="M66.5754 41.5919H44.3577V1.73126H66.5754C69.6968 1.72966 72.7477 2.65951 75.3376 4.40181C78.086 6.23001 80.3195 8.73278 81.8243 11.6708C83.4399 14.7529 84.2703 18.1858 84.2421 21.6656C84.2523 24.3106 83.7672 26.9341 82.812 29.4007C81.9376 31.7343 80.6503 33.8914 79.0116 35.7689C77.4301 37.5442 75.5128 38.9889 73.3702 40.0196C71.2607 41.0566 68.9418 41.5972 66.5912 41.5998M46.0959 39.8616H66.5754C68.6986 39.862 70.7925 39.3669 72.6908 38.4157C74.623 37.4729 76.3496 36.1572 77.7711 34.5442C79.25 32.8246 80.4111 30.8555 81.2002 28.7291C82.9176 24.1794 82.9176 19.1596 81.2002 14.6099C80.4075 12.4852 79.2467 10.5168 77.7711 8.79478C76.3523 7.17478 74.6253 5.85335 72.6908 4.90748C70.7979 3.96587 68.7132 3.47377 66.5991 3.46949H46.0959V39.8616ZM47.8262 38.1234V5.19982H66.5754C69.0818 5.2011 71.5277 5.97043 73.5836 7.4042C75.7987 8.93486 77.5812 11.0113 78.7587 13.4327C80.0449 15.9935 80.7031 18.8237 80.6787 21.6893C80.7022 24.5547 80.0441 27.3847 78.7587 29.9458C77.5778 32.3585 75.7956 34.4265 73.5836 35.9506C71.527 37.382 69.0811 38.1486 66.5754 38.1471L47.8262 38.1234ZM49.5565 36.3931H66.5754C68.7707 36.3932 70.9103 35.7021 72.6908 34.4178C74.6285 33.0425 76.1839 31.1962 77.2101 29.053C78.3405 26.7558 78.9169 24.2257 78.8931 21.6656C78.9142 19.1082 78.3379 16.5813 77.2101 14.286C76.1862 12.1371 74.6306 10.2851 72.6908 8.9054C70.9071 7.62738 68.7696 6.93695 66.5754 6.93014H49.5565V36.3931ZM51.2948 34.6627V8.69207H66.5754C68.4639 8.69479 70.3021 9.30106 71.8216 10.4224C73.4958 11.644 74.8265 13.2768 75.6852 15.163C76.6509 17.2046 77.1399 19.4389 77.1153 21.6972C77.1356 23.9499 76.6468 26.1782 75.6852 28.2155C74.8277 30.1025 73.4968 31.7355 71.8216 32.9561C70.3043 34.0828 68.4652 34.6921 66.5754 34.6944L51.2948 34.6627ZM53.0251 32.9245H66.5754C68.972 32.9245 71.0315 31.8236 72.754 29.6219C74.4994 27.3431 75.4112 24.535 75.3376 21.6656C75.3578 19.7153 74.9506 17.7844 74.1445 16.0084C73.4551 14.3939 72.3678 12.9804 70.9841 11.8999C69.7325 10.9325 68.1968 10.4048 66.6149 10.3987H53.0251V32.9245ZM54.7554 31.1942V12.129H66.607C68.519 12.129 70.1624 13.0692 71.5293 14.9339C72.9315 16.8933 73.6556 19.257 73.5915 21.6656C73.6568 24.0939 72.9211 26.4762 71.4977 28.4446C70.1335 30.2987 68.4927 31.2284 66.5754 31.2337L54.7554 31.1942ZM56.4936 29.4639H66.5754C68.0028 29.4639 69.2275 28.7001 70.2493 27.1726C71.3054 25.5257 71.8371 23.5972 71.7742 21.6419C71.8371 19.6865 71.3054 17.758 70.2493 16.1111C69.2433 14.6152 68.0186 13.8672 66.5754 13.8672H56.4936V29.4639Z" fill="white"/>
<path d="M88.6507 31.6604C87.6498 29.3219 87.1338 26.8047 87.1338 24.2611C87.1338 21.7174 87.6498 19.2002 88.6507 16.8618C90.555 12.2807 94.189 8.63537 98.7641 6.71684C101.103 5.71595 103.62 5.19989 106.163 5.19989C108.707 5.19989 111.224 5.71595 113.563 6.71684C118.15 8.62851 121.796 12.2747 123.708 16.8618C124.709 19.2002 125.225 21.7174 125.225 24.2611C125.225 26.8047 124.709 29.3219 123.708 31.6604C121.803 36.2518 118.154 39.9002 113.563 41.8053C111.224 42.8062 108.707 43.3223 106.163 43.3223C103.62 43.3223 101.103 42.8062 98.7641 41.8053C94.1846 39.8933 90.5484 36.2458 88.6507 31.6604ZM90.2309 17.5334C89.3269 19.6569 88.8609 21.9412 88.8609 24.2492C88.8609 26.5572 89.3269 28.8415 90.2309 30.9651C91.0808 33.0422 92.335 34.9298 93.9206 36.5181C95.5062 38.1064 97.3916 39.3638 99.4673 40.2172C101.591 41.1213 103.875 41.5873 106.183 41.5873C108.491 41.5873 110.775 41.1213 112.899 40.2172C114.975 39.3682 116.862 38.1152 118.451 36.5311C120.039 34.9469 121.297 33.063 122.151 30.9888C123.055 28.8652 123.521 26.5809 123.521 24.2729C123.521 21.9649 123.055 19.6806 122.151 17.5571C121.296 15.4868 120.041 13.6059 118.458 12.0222C116.874 10.4385 114.993 9.18328 112.923 8.32865C110.799 7.42459 108.515 6.95859 106.207 6.95859C103.899 6.95859 101.615 7.42459 99.491 8.32865C97.4207 9.18328 95.5398 10.4385 93.9561 12.0222C92.3724 13.6059 91.1172 15.4868 90.2626 17.5571M91.8428 30.3488C91.024 28.432 90.602 26.3692 90.602 24.2848C90.602 22.2004 91.024 20.1376 91.8428 18.2207C92.6234 16.3666 93.7526 14.6795 95.1691 13.251C96.5945 11.8327 98.2825 10.7056 100.139 9.93256C102.056 9.11385 104.118 8.69177 106.203 8.69177C108.287 8.69177 110.35 9.11385 112.267 9.93256C114.123 10.7056 115.811 11.8327 117.237 13.251C118.645 14.6662 119.772 16.3367 120.555 18.1733C121.374 20.0902 121.796 22.153 121.796 24.2374C121.796 26.3218 121.374 28.3845 120.555 30.3014C118.994 34.0536 116.011 37.0359 112.259 38.5975C110.342 39.4162 108.279 39.8383 106.195 39.8383C104.111 39.8383 102.048 39.4162 100.131 38.5975C96.3787 37.0359 93.3964 34.0536 91.8349 30.3014M93.4151 18.8607C92.6954 20.5633 92.3245 22.3929 92.3245 24.2413C92.3245 26.0897 92.6954 27.9194 93.4151 29.6219C94.807 32.965 97.4659 35.621 100.81 37.0094C102.512 37.7289 104.34 38.0996 106.187 38.0996C108.034 38.0996 109.863 37.7289 111.564 37.0094C114.908 35.621 117.567 32.965 118.959 29.6219C119.679 27.9194 120.05 26.0897 120.05 24.2413C120.05 22.3929 119.679 20.5633 118.959 18.8607C118.261 17.2089 117.256 15.7048 115.996 14.4282C114.723 13.167 113.218 12.1636 111.564 11.4733C109.864 10.7485 108.035 10.3748 106.187 10.3748C104.339 10.3748 102.51 10.7485 100.81 11.4733C99.159 12.1705 97.659 13.1821 96.3938 14.452C95.1343 15.7285 94.1289 17.2326 93.4309 18.8844M95.6985 30.3488C94.0847 27.5627 93.6434 24.2497 94.4716 21.1383C95.2998 18.0269 97.3298 15.3718 100.115 13.7567C101.96 12.6851 104.055 12.1191 106.188 12.1158C108.322 12.1125 110.418 12.672 112.266 13.7379C114.114 14.8038 115.649 16.3384 116.714 18.1866C117.78 20.0349 118.339 22.1316 118.335 24.265C118.335 26.9349 117.454 29.5301 115.83 31.6488C114.205 33.7675 111.927 35.2913 109.349 35.9843C106.77 36.6773 104.036 36.5007 101.568 35.4818C99.1 34.463 97.037 32.6588 95.6985 30.3488ZM98.8589 16.9171C97.8763 17.8675 97.0988 19.0091 96.5743 20.2714C96.0497 21.5338 95.7893 22.8903 95.8091 24.2571C95.7876 25.624 96.0456 26.9808 96.5674 28.2444C97.0891 29.5079 97.8635 30.6516 98.8431 31.6051C99.8065 32.5743 100.952 33.3434 102.214 33.8682C103.475 34.3931 104.828 34.6633 106.195 34.6633C107.562 34.6633 108.915 34.3931 110.176 33.8682C111.438 33.3434 112.584 32.5743 113.547 31.6051C114.527 30.6534 115.303 29.5114 115.826 28.2492C116.349 26.987 116.609 25.6312 116.589 24.265C116.61 22.8987 116.351 21.5424 115.828 20.28C115.305 19.0176 114.528 17.8758 113.547 16.925C112.584 15.9558 111.438 15.1867 110.176 14.6618C108.915 14.137 107.562 13.8668 106.195 13.8668C104.828 13.8668 103.475 14.137 102.214 14.6618C100.952 15.1867 99.8065 15.9558 98.8431 16.925M100.068 30.3567C99.2495 29.5632 98.6024 28.6105 98.1662 27.5574C97.73 26.5044 97.514 25.3731 97.5315 24.2334C97.4359 23.0375 97.5889 21.8348 97.9809 20.7009C98.3729 19.567 98.9954 18.5266 99.8092 17.6451C100.623 16.7636 101.611 16.0602 102.71 15.579C103.809 15.0979 104.995 14.8495 106.195 14.8495C107.395 14.8495 108.581 15.0979 109.68 15.579C110.779 16.0602 111.767 16.7636 112.581 17.6451C113.395 18.5266 114.017 19.567 114.409 20.7009C114.801 21.8348 114.954 23.0375 114.858 24.2334C114.845 25.9411 114.329 27.607 113.375 29.0231C112.42 30.4392 111.07 31.5428 109.492 32.196C107.914 32.8492 106.179 33.0231 104.503 32.696C102.827 32.3689 101.284 31.5553 100.068 30.3567ZM101.3 19.3348C100.654 19.9766 100.142 20.7398 99.7919 21.5805C99.442 22.4212 99.262 23.3228 99.262 24.2334C99.262 25.144 99.442 26.0456 99.7919 26.8863C100.142 27.727 100.654 28.4903 101.3 29.1321C102.27 30.105 103.506 30.7683 104.852 31.038C106.199 31.3077 107.595 31.1716 108.865 30.647C110.134 30.1224 111.219 29.2329 111.982 28.0911C112.745 26.9494 113.152 25.6068 113.152 24.2334C113.16 22.8567 112.757 21.5087 111.995 20.362C111.234 19.2153 110.147 18.3218 108.875 17.7959C107.602 17.27 106.202 17.1355 104.853 17.4096C103.503 17.6837 102.267 18.354 101.3 19.3348Z" fill="white"/>
<path d="M130.866 9.91679V41.592H129.136V6.9302H131.206L151.203 41.592H149.204L130.866 9.91679ZM132.596 14.6574L134.335 17.8178V41.5209H132.596V14.6574ZM133.197 6.90649H135.22L155.296 41.5683H153.281L133.197 6.90649ZM136.065 20.8913L137.795 24.0517V41.592H136.065V20.8913ZM137.29 6.90649H139.336L159.389 41.5683H157.319L137.29 6.90649ZM141.359 6.90649H143.381L161.672 38.558V6.9302H163.41V41.592H161.364L141.359 6.90649ZM156.442 27.6072L154.711 24.4468V6.9302H156.442V27.6072ZM159.91 33.6041L158.18 30.6649V6.9618H159.91V33.6041Z" fill="white"/>
<path d="M221.612 22.1239H218.871C214.188 22.1239 211.844 20.7044 211.839 17.8652C211.839 16.5774 212.566 15.4949 214.019 14.7048C215.473 13.9147 217.654 13.4644 220.554 13.4644C222.47 13.4488 224.381 13.6879 226.234 14.1755C227.797 14.5628 229.268 15.2526 230.564 16.206L229.197 17.2727C227.19 15.8926 224.309 15.2026 220.554 15.2026C218.758 15.1061 216.96 15.3583 215.26 15.9453C214.138 16.4431 213.577 17.083 213.577 17.8731C213.553 18.2783 213.652 18.6813 213.863 19.0285C214.073 19.3757 214.384 19.6507 214.754 19.8168C216.072 20.2918 217.473 20.4908 218.871 20.4015H221.612C226.074 20.4015 229.516 21.4154 231.939 23.4434C233.131 24.433 234.079 25.6842 234.71 27.0997C235.34 28.5152 235.636 30.0569 235.573 31.6051C235.58 33.1281 235.225 34.6309 234.538 35.9902C233.818 37.3879 232.804 38.6141 231.568 39.5852C230.092 40.7138 228.413 41.548 226.622 42.0424C224.446 42.6662 222.192 42.9696 219.929 42.9431C216.974 42.9678 214.035 42.4923 211.238 41.5367C208.74 40.7068 206.443 39.3609 204.499 37.5862L205.873 36.5512C207.658 38.1102 209.749 39.2783 212.013 39.9802C214.565 40.8039 217.232 41.2147 219.914 41.197C224.243 41.197 227.646 40.2805 230.122 38.4474C231.257 37.7012 232.191 36.6862 232.84 35.4927C233.489 34.2991 233.834 32.9638 233.843 31.6051C233.896 30.2867 233.638 28.9742 233.089 27.7744C232.54 26.5745 231.715 25.5211 230.683 24.6996C228.576 23.0035 225.558 22.1529 221.628 22.1476M221.628 29.0768H218.886C214.425 29.0768 210.983 28.0628 208.56 26.0349C207.37 25.0469 206.423 23.7983 205.793 22.3858C205.162 20.9732 204.866 19.4346 204.925 17.889C204.919 16.366 205.273 14.8632 205.96 13.5039C206.681 12.1062 207.694 10.88 208.931 9.90891C210.407 8.78033 212.086 7.94611 213.877 7.4517C216.052 6.82788 218.307 6.52445 220.569 6.55098C223.525 6.52632 226.463 7.00182 229.26 7.95736C231.759 8.78724 234.055 10.1332 236 11.9079L234.602 12.9429C232.815 11.3706 230.718 10.1915 228.447 9.48226C225.896 8.65345 223.228 8.24256 220.546 8.2655C216.216 8.2655 212.816 9.17939 210.345 11.0072C207.875 12.8349 206.648 15.1236 206.664 17.8731C206.609 19.1918 206.867 20.5047 207.416 21.7047C207.965 22.9048 208.79 23.958 209.824 24.7786C211.931 26.4747 214.946 27.3254 218.871 27.3307H221.517C226.258 27.3307 228.628 28.7502 228.628 31.5893C228.628 32.8772 227.902 33.9596 226.448 34.7497C224.994 35.5398 222.821 35.9902 219.914 35.9902C217.997 36.0058 216.086 35.7667 214.233 35.2791C212.669 34.8927 211.197 34.1999 209.903 33.2406L211.27 32.1819C213.277 33.5672 216.158 34.2572 219.914 34.252C221.71 34.3491 223.507 34.0969 225.207 33.5093C226.329 33.0115 226.89 32.3715 226.89 31.5814C226.916 31.1749 226.817 30.7702 226.607 30.4214C226.397 30.0727 226.085 29.7965 225.713 29.6299C224.394 29.1617 222.993 28.9655 221.596 29.0531M221.596 25.5925H218.855C215.484 25.5925 212.892 24.9051 211.08 23.5303C210.199 22.8797 209.491 22.0232 209.017 21.0357C208.543 20.0482 208.318 18.9597 208.362 17.8652C208.362 15.6108 209.429 13.7356 211.562 12.2397C213.695 10.7438 216.687 9.99583 220.538 9.99583C222.975 9.97387 225.4 10.331 227.728 11.0546C229.755 11.6596 231.637 12.6733 233.258 14.0333L231.947 15.1236C230.473 13.9763 228.787 13.133 226.985 12.6427C224.897 12.0304 222.73 11.7295 220.554 11.7499C217.172 11.7499 214.586 12.3266 212.795 13.4802C211.004 14.6337 210.108 16.1033 210.108 17.889C210.069 18.7553 210.251 19.6174 210.636 20.3942C211.022 21.171 211.599 21.837 212.313 22.3293C213.782 23.3644 215.963 23.9095 218.871 23.9095H221.517C224.936 23.9095 227.556 24.5969 229.379 25.9717C230.258 26.6175 230.966 27.4683 231.441 28.4502C231.916 29.432 232.144 30.5151 232.105 31.6051C232.105 33.849 231.038 35.7295 228.944 37.2228C226.851 38.7161 223.817 39.4746 219.969 39.4746C217.534 39.4971 215.111 39.1399 212.787 38.4158C210.757 37.8122 208.874 36.7954 207.256 35.4292L208.607 34.3468C210.079 35.5015 211.766 36.3528 213.569 36.8514C215.656 37.4594 217.819 37.7601 219.993 37.7442C223.374 37.7442 225.96 37.1675 227.751 36.0139C229.545 34.8525 230.438 33.3908 230.438 31.6051C230.478 30.7387 230.297 29.8763 229.911 29.0993C229.525 28.3224 228.948 27.6566 228.233 27.1648C226.769 26.1113 224.583 25.5846 221.675 25.5846" fill="#111111"/>
<path d="M219.866 21.642H217.124C212.436 21.642 210.093 20.2198 210.093 17.3754C210.093 16.0954 210.819 15.042 212.273 14.215C213.727 13.4249 215.9 12.9745 218.807 12.9745C220.724 12.9589 222.634 13.1981 224.488 13.6856C226.039 14.0768 227.499 14.7665 228.786 15.7162L227.419 16.7749C225.413 15.4002 222.531 14.7101 218.776 14.7049C216.979 14.6095 215.181 14.8644 213.482 15.4555C212.36 15.9559 211.799 16.5958 211.799 17.3754C211.774 17.7828 211.874 18.1882 212.086 18.537C212.298 18.8859 212.611 19.1616 212.984 19.327C214.302 19.7991 215.704 19.9954 217.101 19.9037H219.842C224.304 19.9037 227.746 20.9203 230.169 22.9535C231.36 23.9411 232.307 25.1897 232.937 26.6023C233.567 28.015 233.864 29.5538 233.804 31.0995C233.811 32.62 233.456 34.1205 232.768 35.4767C232.05 36.8781 231.037 38.1072 229.798 39.0795C228.321 40.2055 226.642 41.037 224.852 41.5288C222.678 42.1594 220.423 42.4655 218.159 42.4375C215.204 42.4582 212.266 41.9828 209.468 41.0311C206.968 40.204 204.672 38.8577 202.729 37.0806L204.127 36.0455C205.916 37.6184 208.016 38.7975 210.29 39.5062C212.842 40.3286 215.51 40.7367 218.191 40.715C222.521 40.715 225.921 39.8012 228.391 37.9734C229.528 37.2252 230.462 36.2075 231.11 35.0109C231.758 33.8143 232.099 32.476 232.105 31.1153C232.16 29.7966 231.902 28.4835 231.353 27.2833C230.804 26.0832 229.978 25.03 228.944 24.2098C226.837 22.5032 223.822 21.6525 219.898 21.6578M219.898 28.587H217.156C212.689 28.587 209.247 27.573 206.829 25.5451C205.632 24.5582 204.678 23.3084 204.042 21.8928C203.406 20.4772 203.106 18.9341 203.163 17.3833C203.158 15.863 203.512 14.363 204.198 13.0061C204.917 11.607 205.93 10.3805 207.169 9.41117C208.645 8.28259 210.324 7.44836 212.115 6.95395C214.29 6.33013 216.545 6.0267 218.807 6.05324C221.763 6.02858 224.701 6.50408 227.498 7.45962C229.997 8.2895 232.293 9.63545 234.238 11.4101L232.84 12.4452C231.057 10.8832 228.965 9.71475 226.7 9.01612C224.149 8.18853 221.481 7.77767 218.799 7.79936C214.47 7.79936 211.067 8.71325 208.591 10.541C206.116 12.3688 204.883 14.6496 204.894 17.3833C204.84 18.703 205.098 20.0168 205.647 21.218C206.196 22.4192 207.021 23.474 208.054 24.2967C210.161 25.9981 213.179 26.8487 217.109 26.8487H219.755C224.496 26.8487 226.866 28.2683 226.866 31.1074C226.866 32.3874 226.139 33.4777 224.686 34.2678C223.232 35.0579 221.051 35.5083 218.152 35.5083C216.235 35.5225 214.326 35.2861 212.471 34.8051C210.906 34.4203 209.434 33.7273 208.141 32.7666L209.508 31.7079C211.515 33.0932 214.396 33.7832 218.152 33.7779C219.948 33.8745 221.745 33.6222 223.445 33.0352C224.567 32.5375 225.128 31.8896 225.128 31.1074C225.152 30.7013 225.052 30.2975 224.842 29.9492C224.632 29.6008 224.321 29.3243 223.951 29.1558C222.632 28.685 221.232 28.4888 219.834 28.5791M219.834 25.1105H217.093C213.716 25.1105 211.125 24.4258 209.318 23.0562C208.448 22.3975 207.752 21.5367 207.289 20.5482C206.826 19.5597 206.612 18.4734 206.663 17.3833C206.663 15.1394 207.717 13.2669 209.824 11.7657C211.931 10.2645 214.925 9.50335 218.807 9.48228C221.242 9.46431 223.664 9.82141 225.989 10.541C228.016 11.1511 229.898 12.1672 231.52 13.5276L230.169 14.61C228.695 13.4584 227.009 12.6074 225.207 12.1054C223.12 11.5002 220.956 11.2021 218.784 11.2205C215.391 11.2205 212.805 11.7973 211.025 12.9508C209.244 14.1044 208.357 15.5819 208.362 17.3833C208.321 18.251 208.502 19.1147 208.888 19.893C209.274 20.6713 209.851 21.3385 210.567 21.8316C212.026 22.8851 214.212 23.4118 217.124 23.4118H219.771C223.185 23.4118 225.805 24.0965 227.633 25.4661C228.512 26.1124 229.22 26.9631 229.696 27.9447C230.173 28.9262 230.403 30.0091 230.367 31.0995C230.367 33.3434 229.3 35.2159 227.167 36.7171C225.033 38.2183 222.041 38.9689 218.191 38.9689C215.754 38.9869 213.329 38.6298 211.001 37.9102C208.972 37.3057 207.089 36.289 205.47 34.9236L206.821 33.8411C208.284 34.993 209.959 35.8442 211.752 36.3458C213.841 36.9537 216.007 37.2545 218.183 37.2386C221.565 37.2386 224.151 36.6592 225.942 35.5004C227.733 34.3415 228.628 32.8746 228.628 31.0995C228.668 30.2323 228.485 29.3694 228.098 28.5924C227.711 27.8155 227.132 27.15 226.416 26.6591C224.946 25.6241 222.766 25.0789 219.858 25.0789" fill="white"/>
<g clip-path="url(#clip0_74_17703)">
<path d="M175.313 42H173.995V7.91895H175.473L175.313 42ZM178.309 42H176.791V7.91895H178.309V42ZM181.265 42H179.787V7.91895H181.265V42ZM184.221 34.6084H200.2V36.0868H184.221V37.5651H200.2V38.9635H184.221V40.4418H200.2V41.9201H182.743V7.91895H200V9.39726H184.221V10.9954H200.2V12.4737H184.221V13.952H200.2V15.4304H184.221V21.2637H192.21V22.742H184.221V24.2203H192.21V25.6986H184.221V27.1769H192.21V28.6552H184.221V34.6084Z" fill="#111111"/>
<path d="M171.478 41.081H170V7H171.478V41.081ZM174.434 41.081H172.956V7H174.434V41.081ZM177.43 41.081H175.952V7H177.43V41.081ZM180.386 33.6895H196.365V35.1678H180.386V36.6461H196.365V38.1244H180.386V39.6027H196.365V41.081H178.908V7H196.165V8.47831H180.386V9.95662H196.365V11.4349H180.386V12.9132H196.365V14.4315H180.386V20.3447H188.375V21.8231H180.386V23.3014H188.375V24.7797H180.386V26.258H188.375V27.7763H180.386V33.6895Z" fill="white"/>
</g>
<defs>
<clipPath id="clip0_74_17703">
<rect width="30" height="35" fill="white" transform="translate(170 7)"/>
</clipPath>
</defs>
</svg>
