<svg width="210" height="62" viewBox="0 0 210 62" fill="none" xmlns="http://www.w3.org/2000/svg">
<path d="M0.666016 61.3201H0.166016V61.8201H0.666016V61.3201ZM0.666016 1.16382V0.663818H0.166016V1.16382H0.666016ZM18.9863 1.16382L19.4816 1.0955L19.4221 0.663818H18.9863V1.16382ZM24.0449 37.8386L23.5496 37.9069L24.5403 37.9065L24.0449 37.8386ZM29.0693 1.16382V0.663818H28.6332L28.574 1.09595L29.0693 1.16382ZM47.5605 1.16382H48.0605V0.663818H47.5605V1.16382ZM47.5605 61.3201V61.8201H48.0605V61.3201H47.5605ZM36.5547 61.3201H36.0547V61.8201H36.5547V61.3201ZM36.5547 17.9802H37.0547L36.0609 17.9016L36.5547 17.9802ZM29.6504 61.3201V61.8201H30.077L30.1442 61.3987L29.6504 61.3201ZM18.8496 61.3201L18.3566 61.4033L18.4269 61.8201H18.8496V61.3201ZM11.5352 17.9802L12.0282 17.897L11.0352 17.9802H11.5352ZM11.5352 61.3201V61.8201H12.0352V61.3201H11.5352ZM1.16602 61.3201V1.16382H0.166016V61.3201H1.16602ZM0.666016 1.66382H18.9863V0.663818H0.666016V1.66382ZM18.491 1.23214L23.5496 37.9069L24.5402 37.7703L19.4816 1.0955L18.491 1.23214ZM24.5403 37.9065L29.5647 1.23168L28.574 1.09595L23.5495 37.7708L24.5403 37.9065ZM29.0693 1.66382H47.5605V0.663818H29.0693V1.66382ZM47.0605 1.16382V61.3201H48.0605V1.16382H47.0605ZM47.5605 60.8201H36.5547V61.8201H47.5605V60.8201ZM37.0547 61.3201V17.9802H36.0547V61.3201H37.0547ZM36.0609 17.9016L29.1566 61.2414L30.1442 61.3987L37.0485 18.0589L36.0609 17.9016ZM29.6504 60.8201H18.8496V61.8201H29.6504V60.8201ZM19.3426 61.2369L12.0282 17.897L11.0421 18.0634L18.3566 61.4033L19.3426 61.2369ZM11.0352 17.9802V61.3201H12.0352V17.9802H11.0352ZM11.5352 60.8201H0.666016V61.8201H11.5352V60.8201ZM54.2926 61.3201H53.7926V61.8201H54.2926V61.3201ZM54.2926 1.16382V0.663818H53.7926V1.16382H54.2926ZM78.3551 1.16382H78.8551V0.663818H78.3551V1.16382ZM78.3551 12.7849V13.2849H78.8551V12.7849H78.3551ZM66.5289 12.7849V12.2849H66.0289V12.7849H66.5289ZM66.5289 24.5085H66.0289V25.0085H66.5289V24.5085ZM77.8766 24.5085H78.3766V24.0085H77.8766V24.5085ZM77.8766 35.822V36.322H78.3766V35.822H77.8766ZM66.5289 35.822V35.322H66.0289V35.822H66.5289ZM66.5289 49.5964H66.0289V50.0964H66.5289V49.5964ZM79.1412 49.5964H79.6412V49.0964H79.1412V49.5964ZM79.1412 61.3201V61.8201H79.6412V61.3201H79.1412ZM54.7926 61.3201V1.16382H53.7926V61.3201H54.7926ZM54.2926 1.66382H78.3551V0.663818H54.2926V1.66382ZM77.8551 1.16382V12.7849H78.8551V1.16382H77.8551ZM78.3551 12.2849H66.5289V13.2849H78.3551V12.2849ZM66.0289 12.7849V24.5085H67.0289V12.7849H66.0289ZM66.5289 25.0085H77.8766V24.0085H66.5289V25.0085ZM77.3766 24.5085V35.822H78.3766V24.5085H77.3766ZM77.8766 35.322H66.5289V36.322H77.8766V35.322ZM66.0289 35.822V49.5964H67.0289V35.822H66.0289ZM66.5289 50.0964H79.1412V49.0964H66.5289V50.0964ZM78.6412 49.5964V61.3201H79.6412V49.5964H78.6412ZM79.1412 60.8201H54.2926V61.8201H79.1412V60.8201ZM82.968 61.3201H82.468V61.8201H82.968V61.3201ZM82.968 50.3826L82.4977 50.2127L82.468 50.2951V50.3826H82.968ZM96.7424 12.238L97.2127 12.4079L97.4545 11.738H96.7424V12.238ZM84.301 12.238H83.801V12.738H84.301V12.238ZM84.301 1.16382V0.663818H83.801V1.16382H84.301ZM109.423 1.16382H109.923V0.663818H109.423V1.16382ZM109.423 11.6912L109.893 11.862L109.923 11.7792V11.6912H109.423ZM95.4094 50.2458L94.9395 50.075L94.6956 50.7458H95.4094V50.2458ZM108.842 50.2458H109.342V49.7458H108.842V50.2458ZM108.842 61.3201V61.8201H109.342V61.3201H108.842ZM83.468 61.3201V50.3826H82.468V61.3201H83.468ZM83.4382 50.5524L97.2127 12.4079L96.2721 12.0682L82.4977 50.2127L83.4382 50.5524ZM96.7424 11.738H84.301V12.738H96.7424V11.738ZM84.801 12.238V1.16382H83.801V12.238H84.801ZM84.301 1.66382H109.423V0.663818H84.301V1.66382ZM108.923 1.16382V11.6912H109.923V1.16382H108.923ZM108.953 11.5204L94.9395 50.075L95.8793 50.4167L109.893 11.862L108.953 11.5204ZM95.4094 50.7458H108.842V49.7458H95.4094V50.7458ZM108.342 50.2458V61.3201H109.342V50.2458H108.342ZM108.842 60.8201H82.968V61.8201H108.842V60.8201ZM118.137 57.7996L117.779 58.1486L117.781 58.1501L118.137 57.7996ZM117.625 5.26538L117.225 4.96538L117.223 4.96727L117.625 5.26538ZM136.526 2.18921L136.312 2.64099L136.314 2.64183L136.526 2.18921ZM141.79 6.90601L141.363 7.16598L141.364 7.16805L141.79 6.90601ZM143.704 25.158V25.658H144.204V25.158H143.704ZM131.741 25.158H131.241V25.658H131.741V25.158ZM131.057 12.6482L130.65 12.9389L130.656 12.9458L131.057 12.6482ZM126.682 12.9216L127.132 13.1401L127.135 13.1351L126.682 12.9216ZM126.819 49.7673L126.409 50.0541L126.416 50.063L126.819 49.7673ZM131.092 49.5281L130.647 49.2996L130.642 49.3093L131.092 49.5281ZM131.741 35.4119V34.9119H131.241V35.4119H131.741ZM143.841 35.4119H144.341V34.9119H143.841V35.4119ZM139.842 58.3123L140.174 58.686L140.176 58.6844L139.842 58.3123ZM128.665 61.3669C124.426 61.3669 121.052 60.0509 118.494 57.449L117.781 58.1501C120.555 60.9714 124.2 62.3669 128.665 62.3669V61.3669ZM118.496 57.4505C115.967 54.857 114.673 51.2027 114.673 46.4177H113.673C113.673 51.3853 115.021 55.3189 117.779 58.1486L118.496 57.4505ZM114.673 46.4177V18.6638H113.673V46.4177H114.673ZM114.673 18.6638C114.673 12.8859 115.814 8.54223 118.026 5.56349L117.223 4.96727C114.833 8.18645 113.673 12.7751 113.673 18.6638H114.673ZM118.025 5.56538C120.224 2.63305 123.819 1.11694 128.938 1.11694V0.116943C123.622 0.116943 119.674 1.6998 117.225 4.96538L118.025 5.56538ZM128.938 1.11694C131.725 1.11694 134.179 1.62937 136.312 2.64098L136.74 1.73743C134.453 0.65269 131.849 0.116943 128.938 0.116943V1.11694ZM136.314 2.64183C138.458 3.6485 140.138 5.15399 141.363 7.16598L142.217 6.64603C140.89 4.46531 139.06 2.82628 136.739 1.73659L136.314 2.64183ZM141.364 7.16805C142.579 9.14242 143.204 11.6652 143.204 14.7673H144.204C144.204 11.5348 143.553 8.81673 142.216 6.64396L141.364 7.16805ZM143.204 14.7673V25.158H144.204V14.7673H143.204ZM143.704 24.658H131.741V25.658H143.704V24.658ZM132.241 25.158V16.2712H131.241V25.158H132.241ZM132.241 16.2712C132.241 15.353 132.183 14.5676 132.061 13.9227C131.941 13.2846 131.751 12.7447 131.459 12.3506L130.656 12.9458C130.819 13.1669 130.971 13.5385 131.079 14.1081C131.185 14.6709 131.241 15.3894 131.241 16.2712H132.241ZM131.464 12.3576C130.894 11.5586 130.017 11.1912 128.938 11.1912V12.1912C129.774 12.1912 130.31 12.4618 130.651 12.9388L131.464 12.3576ZM128.938 11.1912C128.321 11.1912 127.766 11.3044 127.297 11.5598C126.823 11.8187 126.466 12.2082 126.23 12.7081L127.135 13.1351C127.286 12.8147 127.499 12.589 127.776 12.4377C128.06 12.283 128.439 12.1912 128.938 12.1912V11.1912ZM126.233 12.7032C125.8 13.5948 125.601 14.75 125.601 16.1345H126.601C126.601 14.8302 126.791 13.8435 127.132 13.1401L126.233 12.7032ZM125.601 16.1345V46.2468H126.601V16.1345H125.601ZM125.601 46.2468C125.601 47.9281 125.837 49.2367 126.41 50.0541L127.229 49.4806C126.844 48.9308 126.601 47.8924 126.601 46.2468H125.601ZM126.416 50.063C127.019 50.8859 127.882 51.2927 128.938 51.2927V50.2927C128.172 50.2927 127.621 50.0159 127.222 49.4717L126.416 50.063ZM128.938 51.2927C129.519 51.2927 130.047 51.1729 130.499 50.9077C130.953 50.6409 131.299 50.2454 131.541 49.7468L130.642 49.3093C130.474 49.6539 130.256 49.8907 129.992 50.0454C129.726 50.2017 129.382 50.2927 128.938 50.2927V51.2927ZM131.536 49.7565C132.018 48.8194 132.241 47.6395 132.241 46.2468H131.241C131.241 47.5429 131.032 48.5505 130.647 49.2997L131.536 49.7565ZM132.241 46.2468V35.4119H131.241V46.2468H132.241ZM131.741 35.9119H143.841V34.9119H131.741V35.9119ZM143.341 35.4119V46.7937H144.341V35.4119H143.341ZM143.341 46.7937C143.341 52.0065 142.026 55.6801 139.508 57.9401L140.176 58.6844C142.989 56.1593 144.341 52.1538 144.341 46.7937H143.341ZM139.509 57.9386C136.962 60.2027 133.37 61.3669 128.665 61.3669V62.3669C133.53 62.3669 137.389 61.1614 140.174 58.686L139.509 57.9386ZM147.633 61.3201L147.136 61.272L147.083 61.8201H147.633V61.3201ZM153.444 1.16382V0.663818H152.99L152.946 1.11575L153.444 1.16382ZM173.849 1.16382L174.347 1.11659L174.304 0.663818H173.849V1.16382ZM179.557 61.3201V61.8201H180.107L180.055 61.2728L179.557 61.3201ZM168.175 61.3201L167.677 61.3639L167.717 61.8201H168.175V61.3201ZM167.321 51.613L167.819 51.5692L167.779 51.113H167.321V51.613ZM160.075 51.613V51.113H159.612L159.576 51.5744L160.075 51.613ZM159.323 61.3201V61.8201H159.785L159.821 61.3587L159.323 61.3201ZM160.929 42.0085L160.431 41.9712L160.39 42.5085H160.929V42.0085ZM166.398 42.0085V42.5085H166.943L166.896 41.9657L166.398 42.0085ZM163.766 11.4177L164.264 11.3749L164.225 10.9177H163.766V11.4177ZM163.219 11.4177V10.9177H162.755L162.721 11.3804L163.219 11.4177ZM148.131 61.3681L153.941 1.21189L152.946 1.11575L147.136 61.272L148.131 61.3681ZM153.444 1.66382H173.849V0.663818H153.444V1.66382ZM173.351 1.21105L179.059 61.3673L180.055 61.2728L174.347 1.11659L173.351 1.21105ZM179.557 60.8201H168.175V61.8201H179.557V60.8201ZM168.673 61.2762L167.819 51.5692L166.823 51.6569L167.677 61.3639L168.673 61.2762ZM167.321 51.113H160.075V52.113H167.321V51.113ZM159.576 51.5744L158.824 61.2815L159.821 61.3587L160.573 51.6517L159.576 51.5744ZM159.323 60.8201H147.633V61.8201H159.323V60.8201ZM160.929 42.5085H166.398V41.5085H160.929V42.5085ZM166.896 41.9657L164.264 11.3749L163.268 11.4606L165.9 42.0514L166.896 41.9657ZM163.766 10.9177H163.219V11.9177H163.766V10.9177ZM162.721 11.3804L160.431 41.9712L161.428 42.0459L163.718 11.4551L162.721 11.3804ZM184.648 61.3201H184.148V61.8201H184.648V61.3201ZM184.648 1.16382V0.663818H184.148V1.16382H184.648ZM196.68 1.16382H197.18V0.663818H196.68V1.16382ZM196.68 51.0662H196.18V51.5662H196.68V51.0662ZM209.053 51.0662H209.553V50.5662H209.053V51.0662ZM209.053 61.3201V61.8201H209.553V61.3201H209.053ZM185.148 61.3201V1.16382H184.148V61.3201H185.148ZM184.648 1.66382H196.68V0.663818H184.648V1.66382ZM196.18 1.16382V51.0662H197.18V1.16382H196.18ZM196.68 51.5662H209.053V50.5662H196.68V51.5662ZM208.553 51.0662V61.3201H209.553V51.0662H208.553ZM209.053 60.8201H184.648V61.8201H209.053V60.8201Z" fill="#101010"/>
</svg>
